#!OML:ASF H:\ManfredETheater\Project 1\Capture day 1\Session 1\subject.ASF
:FULLY-SPECIFIED
:DEGREES
433
root -3.83106 14.533 15.8247 21.9846 14.9423 4.57513
lowerback 28.8932 -1.50897 -4.319
upperback 2.51418 -3.44738 -1.37351
thorax -13.0462 -1.32679 2.24479
lowerneck -11.4488 -7.23573 -6.51969
upperneck -14.4815 -7.99263 14.3982
head -1.50757 -3.98418 5.2623
rclavicle 5.96354e-015 -5.1684e-015
rhumerus -41.1491 -0.817458 -79.8682
rradius 78.8602
rwrist -3.96205
rhand -31.0642 -3.86772
rfingers 7.12502
rthumb -4.34515 -33.8031
lclavicle 5.96354e-015 -5.1684e-015
lhumerus -26.0102 -0.728932 82.3911
lradius 92.2294
lwrist -7.29167
lhand -28.8376 -19.4833
lfingers 7.12502
lthumb -2.19491 10.4852
rfemur -86.7088 -11.1443 27.6185
rtibia 73.7533
rfoot -12.1891 -5.45093
rtoes -36.6818
lfemur -15.7667 0.147189 -21.9634
ltibia 63.5775
lfoot -38.4723 1.51387
ltoes -39.7872
434
root -3.777 14.5084 16.0674 22.271 14.5774 4.39092
lowerback 28.6202 -1.78194 -4.1037
upperback 2.42561 -3.69975 -1.20166
thorax -12.9918 -1.44922 2.40618
lowerneck -11.7884 -6.91109 -6.31394
upperneck -14.5605 -7.57075 14.1123
head -1.54758 -3.76889 5.15526
rclavicle -2.54444e-014 -7.95139e-016
rhumerus -42.5629 -1.06236 -79.2559
rradius 80.0808
rwrist -3.8106
rhand -31.1462 -3.62611
rfingers 7.12502
rthumb -4.42429 -33.5599
lclavicle -2.54444e-014 -7.95139e-016
lhumerus -26.1677 -1.03055 81.8268
lradius 93.3474
lwrist -7.37587
lhand -28.9207 -19.3515
lfingers 7.12502
lthumb -2.2751 10.6161
rfemur -86.9506 -11.2382 27.5557
rtibia 72.8825
rfoot -10.7331 -4.80147
rtoes -36.8976
lfemur -14.2298 -0.147096 -22.0547
ltibia 61.7474
lfoot -38.3652 2.34736
ltoes -40.051
435
root -3.72449 14.4899 16.3198 22.6286 14.2945 4.18246
lowerback 28.3027 -2.06674 -3.83057
upperback 2.31831 -3.94573 -0.998001
thorax -12.9371 -1.57129 2.56483
lowerneck -12.158 -6.60286 -6.12018
upperneck -14.6121 -7.17567 13.7953
head -1.57195 -3.56458 5.0374
rclavicle -2.74323e-014 2.78299e-015
rhumerus -44.0202 -1.30373 -78.6028
rradius 81.222
rwrist -3.64829
rhand -31.23 -3.33611
rfingers 7.12502
rthumb -4.50521 -33.2682
lclavicle -2.74323e-014 2.78299e-015
lhumerus -26.3714 -1.42828 81.3115
lradius 94.4239
lwrist -7.36805
lhand -29.0025 -19.2493
lfingers 7.12502
lthumb -2.35416 10.7174
rfemur -87.1218 -11.3705 27.5425
rtibia 72.3115
rfoot -9.29289 -4.28998
rtoes -37.1489
lfemur -12.7713 -0.526168 -22.091
ltibia 59.8654
lfoot -38.0357 3.09702
ltoes -40.3682
436
root -3.67243 14.4778 16.583 23.041 14.0741 3.93173
lowerback 27.9359 -2.35594 -3.49016
upperback 2.19823 -4.17335 -0.761449
thorax -12.8739 -1.68856 2.7113
lowerneck -12.5544 -6.30614 -5.93419
upperneck -14.6391 -6.80124 13.4418
head -1.58311 -3.36859 4.9072
rclavicle -6.08281e-014 -9.14409e-015
rhumerus -45.4983 -1.53961 -77.9155
rradius 82.251
rwrist -3.50348
rhand -31.2683 -3.03346
rfingers 7.12502
rthumb -4.54219 -32.9648
lclavicle -6.08281e-014 -9.14409e-015
lhumerus -26.6283 -1.91614 80.8602
lradius 95.4357
lwrist -7.29656
lhand -29.0928 -19.182
lfingers 7.12502
lthumb -2.44136 10.7838
rfemur -87.2027 -11.5301 27.6175
rtibia 72.0572
rfoot -8.0803 -3.82255
rtoes -37.2829
lfemur -11.3716 -0.958748 -22.0654
ltibia 57.9296
lfoot -37.4748 3.76416
ltoes -40.7536
437
root -3.62105 14.4716 16.8562 23.4796 13.8672 3.60738
lowerback 27.5473 -2.625 -3.08709
upperback 2.0637 -4.35514 -0.494134
thorax -12.8204 -1.78774 2.83701
lowerneck -12.9679 -6.01915 -5.75826
upperneck -14.6396 -6.44452 13.0593
head -1.58173 -3.17986 4.76799
rclavicle -2.06736e-014 1.39149e-014
rhumerus -47.0092 -1.77049 -77.209
rradius 83.1817
rwrist -3.39702
rhand -31.2995 -2.73006
rfingers 7.12502
rthumb -4.57235 -32.6607
lclavicle -2.06736e-014 1.39149e-014
lhumerus -26.9409 -2.49932 80.4817
lradius 96.3442
lwrist -7.17673
lhand -29.1838 -19.1478
lfingers 7.12502
lthumb -2.52919 10.8169
rfemur -87.1657 -11.6575 27.8219
rtibia 72.1033
rfoot -7.3748 -3.28189
rtoes -37.4718
lfemur -10.0157 -1.38448 -21.9639
ltibia 55.9587
lfoot -36.6646 4.34932
ltoes -41.2184
438
root -3.56751 14.4699 17.1417 23.9472 13.6457 3.32359
lowerback 27.1181 -2.87459 -2.69607
upperback 1.9291 -4.51967 -0.237151
thorax -12.7458 -1.88001 2.94673
lowerneck -13.3845 -5.73706 -5.59061
upperneck -14.6251 -6.0979 12.6549
head -1.57362 -2.99565 4.62276
rclavicle -4.57205e-014 1.98785e-015
rhumerus -48.4974 -1.99108 -76.5038
rradius 83.9502
rwrist -3.35122
rhand -31.3041 -2.476
rfingers 7.12502
rthumb -4.57677 -32.4066
lclavicle -4.57205e-014 1.98785e-015
lhumerus -27.3089 -3.16582 80.1824
lradius 97.1347
lwrist -7.03685
lhand -29.2573 -19.1428
lfingers 7.12502
lthumb -2.60017 10.8211
rfemur -87.0167 -11.8269 28.0766
rtibia 72.4444
rfoot -7.38578 -2.5381
rtoes -37.6165
lfemur -8.65951 -1.82257 -21.9301
ltibia 53.9564
lfoot -35.5749 4.84146
ltoes -41.7084
